<?xml version="1.0" standalone="no"?>
<!DOCTYPE svg PUBLIC "-//W3C//DTD SVG 20010904//EN"
 "http://www.w3.org/TR/2001/REC-SVG-20010904/DTD/svg10.dtd">
<svg version="1.0" xmlns="http://www.w3.org/2000/svg"
 width="16.000000pt" height="16.000000pt" viewBox="0 0 16.000000 16.000000"
 preserveAspectRatio="xMidYMid meet">
<metadata>
Created by potrace 1.11, written by Peter Selinger 2001-2013
</metadata>
<g transform="translate(0.000000,16.000000) scale(0.006154,-0.006154)"
fill="#000000" stroke="none">
<path d="M996 1757 c-30 -30 -28 15 -27 -527 l0 -365 26 -22 c25 -22 32 -23
259 -23 221 0 235 1 260 21 34 27 36 77 3 107 -22 21 -32 22 -205 22 l-182 0
0 378 c0 359 -1 380 -19 401 -11 12 -35 25 -54 28 -29 4 -40 1 -61 -20z"/>
<path d="M1625 1755 c-16 -15 -25 -36 -26 -57 -6 -217 1 -631 11 -668 24 -89
73 -149 148 -182 64 -29 94 -33 207 -32 180 2 282 66 321 201 13 46 16 112 17
377 0 336 -2 354 -44 377 -26 14 -83 4 -100 -18 -11 -12 -15 -90 -19 -352 -5
-327 -6 -337 -28 -372 -30 -50 -81 -73 -162 -73 -85 -1 -136 25 -167 83 -21
41 -22 51 -23 357 0 173 -5 325 -10 339 -18 47 -87 59 -125 20z"/>
<path d="M329 1751 c-16 -7 -31 -22 -35 -33 -3 -10 -6 -206 -6 -435 l-1 -417
27 -23 c27 -23 30 -23 279 -23 277 0 287 2 301 63 5 22 1 33 -21 56 l-28 27
-198 0 -197 -1 0 132 0 132 147 -1 147 0 24 27 c27 32 24 69 -10 98 -17 14
-42 17 -164 17 l-144 0 0 125 0 125 190 0 c189 0 191 0 215 25 14 13 25 36 25
50 0 23 -29 63 -47 66 -5 1 -113 2 -242 3 -179 1 -241 -2 -262 -13z"/>
</g>
</svg>
