<?xml version="1.0" encoding="utf-8"?>
<!-- Generator: Adobe Illustrator 16.0.4, SVG Export Plug-In . SVG Version: 6.00 Build 0)  -->
<!DOCTYPE svg PUBLIC "-//W3C//DTD SVG 1.1//EN" "http://www.w3.org/Graphics/SVG/1.1/DTD/svg11.dtd">
<svg version="1.1" id="Layer_1" xmlns="http://www.w3.org/2000/svg" xmlns:xlink="http://www.w3.org/1999/xlink" x="0px" y="0px"
	 width="791.376px" height="788.008px" viewBox="25.256 36.539 791.376 788.008"
	 enable-background="new 25.256 36.539 791.376 788.008" xml:space="preserve">
<g>
	<path fill="none" d="M335.912,590.503c133.86,0,243.307-109.446,243.307-243.308c0-133.86-109.445-243.306-243.307-243.306
		c-133.86,0-243.305,109.446-243.305,243.306C92.608,481.056,202.053,590.503,335.912,590.503z M335.071,141.775
		c113.655,0,205.421,92.607,205.421,205.421h-42.095c0-90.082-73.244-163.325-163.326-163.325V141.775L335.071,141.775z"/>
	<path d="M335.912,657.853c170.903,0,310.657-138.911,310.657-310.657c0-170.902-138.912-310.656-310.657-310.656
		c-171.744,0-310.656,139.754-310.656,310.656C25.256,518.099,164.168,657.853,335.912,657.853z M335.912,103.89
		c133.86,0,243.307,109.445,243.307,243.306c0,133.861-109.445,243.308-243.307,243.308c-133.86,0-243.305-109.447-243.305-243.308
		C92.608,213.336,202.053,103.89,335.912,103.89z"/>
	<path d="M498.398,347.196h42.095c0-113.654-92.607-205.421-205.421-205.421v42.096C425.154,183.87,498.398,257.114,498.398,347.196
		z"/>
	<path d="M569.958,577.031c-16.839,16.838-16.839,42.938,0,59.774l175.112,175.113c8.419,8.419,19.363,12.628,29.466,12.628
		c10.104,0,21.891-4.209,29.468-12.628c16.838-16.839,16.838-42.938,0-59.774L628.891,577.031
		C612.895,561.035,585.953,561.035,569.958,577.031z"/>
</g>
</svg>
