<?xml version="1.0" encoding="utf-8"?>
<!-- Generator: Adobe Illustrator 16.0.4, SVG Export Plug-In . SVG Version: 6.00 Build 0)  -->
<!DOCTYPE svg PUBLIC "-//W3C//DTD SVG 1.1//EN" "http://www.w3.org/Graphics/SVG/1.1/DTD/svg11.dtd">
<svg version="1.1"
	 id="Layer_1" xmlns:dc="http://purl.org/dc/elements/1.1/" xmlns:cc="http://creativecommons.org/ns#" xmlns:rdf="http://www.w3.org/1999/02/22-rdf-syntax-ns#" xmlns:svg="http://www.w3.org/2000/svg" xmlns:sodipodi="http://sodipodi.sourceforge.net/DTD/sodipodi-0.dtd" xmlns:inkscape="http://www.inkscape.org/namespaces/inkscape"
	 xmlns="http://www.w3.org/2000/svg" xmlns:xlink="http://www.w3.org/1999/xlink" x="0px" y="0px" width="707.481px"
	 height="707.483px" viewBox="67.203 136.299 707.481 707.483" enable-background="new 67.203 136.299 707.481 707.483"
	 xml:space="preserve">
<g transform="translate(0,-952.36218)">
	<path d="M671.25,1192.095c-6.575-6.575-17.236-6.575-23.812,0l-47.624,47.625c-6.576,6.576-6.576,17.236,0,23.812
		c6.575,6.574,17.236,6.574,23.812,0l47.625-47.625C677.825,1209.333,677.825,1198.671,671.25,1192.095L671.25,1192.095z
		 M433.128,1093.499c-3.048-3.048-7.257-4.838-11.906-4.838c-9.299,0-16.742,7.443-16.743,16.743v67.345
		c-0.001,9.297,7.444,16.742,16.743,16.742s16.743-7.443,16.743-16.743v-67.345C437.965,1100.753,436.174,1096.543,433.128,1093.499
		L433.128,1093.499z M769.848,1430.218c-3.047-3.046-7.256-4.837-11.906-4.837l-67.344,0.001c-9.3,0-16.743,7.442-16.743,16.741
		c0,9.3,7.444,16.743,16.743,16.743h67.344c9.3-0.001,16.743-7.443,16.743-16.743
		C774.685,1437.474,772.896,1433.267,769.848,1430.218z M576,1287.345c-78.757-78.757-216.008-93.552-302.675-6.884
		c-54.655,54.655-68.115,110.664-76.273,158.128c-8.157,47.464-11.778,84.703-43.718,116.644l-71.438,71.438
		c-20.207,20.207-18.965,52.472,0,71.438l5.953,5.953c-19.582,19.582-19.582,51.854,0,71.438s51.854,19.583,71.438,0l5.952,5.953
		c18.966,18.966,51.229,20.207,71.438,0l71.437-71.437c31.939-31.94,69.18-35.56,116.645-43.719
		c47.464-8.158,103.472-21.617,158.128-76.273C669.552,1503.354,654.758,1366.103,576,1287.345L576,1287.345z M552.19,1311.157
		c66.44,66.44,79.547,182.388,6.883,255.053c-48.713,48.711-93.909,59.065-139.896,66.972
		c-41.295,7.097-84.55,11.741-122.224,41.857l-108.645-108.644c30.115-37.676,34.761-80.93,41.857-122.225
		c7.903-45.987,18.26-91.186,66.972-139.896C369.802,1231.61,485.747,1244.717,552.19,1311.157L552.19,1311.157z M520.377,1316.552
		c-62.765-49.651-154.415-45.384-212.265,12.464c-11.562,11.562-20.81,24.4-28.09,38.138c-5.127,7.792-2.087,19.602,6.14,23.998
		c8.226,4.397,19.808,0.406,23.438-8.186c5.754-10.854,13.18-20.992,22.324-30.138c45.919-45.918,117.841-49.275,167.43-10.045
		c6.721,5.746,18.066,4.856,23.812-1.86C531.175,1332.523,527.258,1322.516,520.377,1316.552z M195.006,1192.095
		c-6.576-6.575-17.236-6.575-23.812,0c-6.575,6.576-6.575,17.237,0,23.812l47.625,47.625c6.575,6.574,17.236,6.574,23.812,0
		c6.576-6.576,6.576-17.236,0-23.812L195.006,1192.095z M623.625,1620.715c-6.575-6.574-17.235-6.576-23.812,0.001
		c-6.575,6.575-6.576,17.235,0,23.812l47.625,47.624c6.575,6.576,17.235,6.576,23.812,0.001c6.576-6.578,6.576-17.236,0-23.812
		L623.625,1620.715L623.625,1620.715z M165.24,1590.951l107.155,107.154l-23.812,23.812l-107.154-107.156L165.24,1590.951
		L165.24,1590.951z M117.616,1638.574L224.77,1745.73l-11.905,11.905c-7.154,7.154-17.648,6.163-23.812,0l-83.343-83.342
		c-6.163-6.163-7.154-16.659,0-23.813L117.616,1638.574z M111.663,1727.871l23.812,23.812c-6.803,6.802-17.011,6.802-23.812,0
		C104.862,1744.881,104.862,1734.672,111.663,1727.871z"/>
</g>
</svg>
