<?xml version="1.0" encoding="utf-8"?>
<!-- Generator: Adobe Illustrator 19.1.0, SVG Export Plug-In . SVG Version: 6.00 Build 0)  -->
<svg version="1.1" id="Layer_1" xmlns="http://www.w3.org/2000/svg" xmlns:xlink="http://www.w3.org/1999/xlink" x="0px" y="0px"
	 viewBox="0 0 228.4 46.4" style="enable-background:new 0 0 228.4 46.4;" xml:space="preserve">
<style type="text/css">
	.st0{fill:#FFFFFF;}
</style>
<path class="st0" d="M47.8,24.8c-0.1,0.9-0.1,1.8-0.1,2.7v4.9c0,1.8,0,2.8,0.1,3c0.1,0.2,0.4,0.3,1,0.3h0.6v0.5
	c-1,0-1.9-0.1-2.6-0.1c-0.7,0-1.6,0-2.6,0.1v-0.5h0.7c0.4,0,0.6-0.1,0.7-0.1c0.1-0.1,0.2-0.3,0.2-0.6c0.1-0.7,0.1-1.5,0.1-2.6v-4.9
	c0-1,0-1.8-0.1-2.6h-0.9c-1.4,0-2.2,0-2.3,0.1c-0.1,0.1-0.2,0.3-0.3,0.8l-0.1,1.1h-0.5l0-1c0-0.4,0-1-0.1-1.8c3.1,0,4.9,0.1,5.4,0.1
	L52,24c-0.1,1-0.2,1.9-0.2,2.8h-0.5l-0.1-1.1c0-0.4-0.1-0.6-0.1-0.7c-0.1-0.1-0.2-0.1-0.4-0.1c-0.6,0-1.3-0.1-2.1-0.1H47.8z"/>
<path class="st0" d="M55.5,31.4h4.3l-2.2-5.2L55.5,31.4z M60.2,32.1h-4.9l-0.6,1.4c-0.4,0.9-0.6,1.5-0.6,1.7c0,0.1,0,0.2,0.1,0.3
	c0.1,0.1,0.3,0.1,0.5,0.1l0.8,0.1v0.5c-0.5,0-1.2-0.1-1.8-0.1c-0.8,0-1.5,0-2.2,0.1v-0.5l0.3,0c0.4,0,0.7-0.1,0.8-0.1
	c0.1-0.1,0.2-0.2,0.4-0.5c0.4-0.8,0.8-1.7,1.2-2.7l2.3-5.3c0.6-1.4,1-2.4,1.3-3.1h0.6L62.7,34c0.3,0.7,0.5,1.1,0.6,1.2
	c0.1,0.1,0.2,0.2,0.3,0.3c0.1,0.1,0.4,0.1,0.8,0.1v0.5c-0.7,0-1.4-0.1-2.1-0.1c-0.6,0-1.4,0-2.5,0.1v-0.5l0.8-0.1
	c0.3,0,0.5-0.1,0.5-0.1c0.1-0.1,0.1-0.1,0.1-0.2c0-0.1-0.1-0.4-0.3-0.8L60.2,32.1z"/>
<path class="st0" d="M68.8,35.3c0.6,0,1.1,0,1.6,0c1.1,0,1.9,0,2.5-0.1c0.4,0,0.9-0.1,1.3-0.2l0.5-2h0.5c-0.1,1.1-0.3,2.1-0.3,3
	c-0.5,0.1-1.2,0.1-2.1,0.1l-4.1-0.1c-0.5,0-1.4,0-2.6,0.1v-0.4c0.5-0.2,0.7-0.4,0.8-0.6c0.1-0.2,0.1-1.1,0.1-2.7v-4.7
	c0-1.7,0-2.7-0.1-2.9c-0.1-0.2-0.3-0.3-0.7-0.3h-0.9V24c1.4,0,2.3,0.1,2.7,0.1c0.6,0,1.4,0,2.4-0.1v0.5h-1.1c-0.3,0-0.5,0.1-0.6,0.3
	c-0.1,0.2-0.1,0.9-0.1,2.2v5.4l0,2.4L68.8,35.3z"/>
<path class="st0" d="M79.7,35.3c0.6,0,1.1,0,1.6,0c1.1,0,1.9,0,2.5-0.1c0.4,0,0.9-0.1,1.3-0.2l0.5-2h0.5c-0.1,1.1-0.3,2.1-0.3,3
	c-0.5,0.1-1.2,0.1-2.1,0.1l-4.1-0.1c-0.5,0-1.4,0-2.6,0.1v-0.4c0.5-0.2,0.7-0.4,0.8-0.6c0.1-0.2,0.1-1.1,0.1-2.7v-4.7
	c0-1.7,0-2.7-0.1-2.9c-0.1-0.2-0.3-0.3-0.7-0.3h-0.9V24c1.4,0,2.3,0.1,2.7,0.1c0.6,0,1.4,0,2.4-0.1v0.5h-1.1c-0.3,0-0.5,0.1-0.6,0.3
	c-0.1,0.2-0.1,0.9-0.1,2.2v5.4l0,2.4L79.7,35.3z"/>
<path class="st0" d="M87.4,35.7H88c0.5,0,0.9-0.1,1-0.4c0.1-0.3,0.2-1.5,0.2-3.7v-2.9c0-2.3,0-3.5-0.1-3.8c-0.1-0.2-0.4-0.4-0.8-0.4
	h-0.7V24c1,0,1.9,0.1,2.8,0.1c0.8,0,1.5,0,2.1-0.1v0.5h-0.7c-0.4,0-0.7,0-0.8,0.1c-0.1,0.1-0.2,0.3-0.2,0.7c0,0.6,0,1.7,0,3.3v2.9
	c0,2.2,0,3.4,0.1,3.7c0.1,0.2,0.4,0.3,0.9,0.3h0.6v0.5c-0.7,0-1.5-0.1-2.3-0.1c-1,0-1.8,0-2.6,0.1V35.7z"/>
<path class="st0" d="M97,26v5.9c0,1.3,0,2.3,0.1,2.8c0,0.4,0.1,0.7,0.2,0.7c0.1,0.1,0.4,0.2,0.8,0.2l0.6,0v0.5
	c-0.6,0-1.2-0.1-1.7-0.1c-0.3,0-1.2,0-2.4,0.1v-0.5h0.6c0.4,0,0.6-0.1,0.7-0.2c0.1-0.1,0.2-0.3,0.2-0.6c0.1-0.6,0.1-1.5,0.1-2.6
	v-4.3c0-0.8,0-1.6,0-2.4c0-0.3-0.1-0.6-0.1-0.7c-0.1-0.1-0.2-0.2-0.3-0.3c-0.1-0.1-0.4-0.1-0.6-0.1h-0.5V24c0.7,0,1.3,0.1,1.7,0.1
	c0.4,0,0.9,0,1.3-0.1c0.6,0.7,1.1,1.4,1.6,2c0.5,0.7,1,1.3,1.5,2l2.9,3.6c1.1,1.3,1.8,2.2,2.3,2.7v-5.5c0-2.3,0-3.6-0.1-3.8
	c-0.1-0.2-0.4-0.3-1-0.4l-0.6-0.1V24c0.9,0,1.6,0.1,2.1,0.1c0.5,0,1.2,0,2.1-0.1v0.5h-0.7c-0.5,0-0.8,0.2-0.9,0.5
	c-0.1,0.2-0.1,1.5-0.1,3.7v3.9c0,1,0,2.3,0.1,3.7c-0.8-0.1-1.2-0.2-1.3-0.3c-0.1-0.1-0.2-0.1-0.4-0.3c-0.6-0.7-1.3-1.5-2-2.3L97,26z
	"/>
<path class="st0" d="M112.1,26v5.9c0,1.3,0,2.3,0.1,2.8c0,0.4,0.1,0.7,0.2,0.7c0.1,0.1,0.4,0.2,0.8,0.2l0.6,0v0.5
	c-0.6,0-1.2-0.1-1.7-0.1c-0.3,0-1.1,0-2.4,0.1v-0.5h0.6c0.4,0,0.6-0.1,0.7-0.2c0.1-0.1,0.2-0.3,0.2-0.6c0.1-0.6,0.1-1.5,0.1-2.6
	v-4.3c0-0.8,0-1.6,0-2.4c0-0.3-0.1-0.6-0.1-0.7c-0.1-0.1-0.2-0.2-0.3-0.3c-0.1-0.1-0.4-0.1-0.6-0.1h-0.5V24c0.7,0,1.3,0.1,1.7,0.1
	c0.4,0,0.9,0,1.3-0.1c0.6,0.7,1.1,1.4,1.6,2c0.5,0.7,1,1.3,1.5,2l2.9,3.6c1.1,1.3,1.8,2.2,2.3,2.7v-5.5c0-2.3,0-3.6-0.1-3.8
	c-0.1-0.2-0.4-0.3-1-0.4l-0.6-0.1V24c0.9,0,1.6,0.1,2.1,0.1c0.5,0,1.2,0,2.1-0.1v0.5h-0.7c-0.5,0-0.8,0.2-0.9,0.5
	c-0.1,0.2-0.1,1.5-0.1,3.7v3.9c0,1,0,2.3,0.1,3.7c-0.8-0.1-1.2-0.2-1.3-0.3c-0.1-0.1-0.2-0.1-0.4-0.3c-0.6-0.7-1.3-1.5-2-2.3
	L112.1,26z"/>
<path class="st0" d="M127.7,31.4h4.3l-2.2-5.2L127.7,31.4z M132.3,32.1h-4.9l-0.6,1.4c-0.4,0.9-0.6,1.5-0.6,1.7c0,0.1,0,0.2,0.1,0.3
	c0.1,0.1,0.3,0.1,0.5,0.1l0.8,0.1v0.5c-0.5,0-1.2-0.1-1.8-0.1c-0.8,0-1.5,0-2.2,0.1v-0.5l0.3,0c0.4,0,0.7-0.1,0.8-0.1
	c0.1-0.1,0.2-0.2,0.4-0.5c0.4-0.8,0.8-1.7,1.2-2.7l2.3-5.3c0.6-1.4,1-2.4,1.3-3.1h0.6l4.3,10.1c0.3,0.7,0.5,1.1,0.6,1.2
	c0.1,0.1,0.2,0.2,0.3,0.3c0.1,0.1,0.4,0.1,0.8,0.1v0.5c-0.7,0-1.4-0.1-2.1-0.1c-0.6,0-1.4,0-2.5,0.1v-0.5l0.8-0.1
	c0.3,0,0.5-0.1,0.5-0.1c0.1-0.1,0.1-0.1,0.1-0.2c0-0.1-0.1-0.4-0.3-0.8L132.3,32.1z"/>
<path class="st0" d="M153.3,21.3c0.3,0,0.5,0.1,0.7,0.3c0.2,0.2,0.3,0.4,0.3,0.7c0,0.3-0.1,0.5-0.3,0.7c-0.2,0.2-0.4,0.3-0.7,0.3
	c-0.3,0-0.5-0.1-0.7-0.3c-0.2-0.2-0.3-0.4-0.3-0.7c0-0.3,0.1-0.5,0.3-0.7C152.8,21.4,153,21.3,153.3,21.3 M149.6,21.3
	c0.3,0,0.5,0.1,0.7,0.3c0.2,0.2,0.3,0.4,0.3,0.7c0,0.3-0.1,0.5-0.3,0.7c-0.2,0.2-0.4,0.3-0.7,0.3c-0.3,0-0.5-0.1-0.7-0.3
	c-0.2-0.2-0.3-0.4-0.3-0.7c0-0.3,0.1-0.5,0.3-0.7C149.1,21.4,149.3,21.3,149.6,21.3 M144.6,24.6V24c1.2,0,2,0.1,2.6,0.1
	c0.6,0,1.4,0,2.5-0.1v0.5H149c-0.5,0-0.9,0.1-1,0.3c-0.1,0.2-0.2,1.1-0.2,2.8V31c0,1.2,0.1,2.1,0.2,2.5c0.1,0.5,0.5,0.9,1,1.2
	c0.6,0.3,1.3,0.5,2.2,0.5c1,0,1.8-0.2,2.4-0.5c0.5-0.2,0.8-0.6,1-1.1c0.2-0.5,0.3-1.5,0.3-2.9v-3.2c0-1.5-0.1-2.3-0.2-2.6
	c-0.1-0.2-0.5-0.3-1.1-0.3h-0.4V24c1.2,0,1.9,0.1,2.3,0.1c0.5,0,1.2,0,1.9-0.1v0.5H157c-0.5,0-0.7,0.1-0.9,0.4
	c-0.1,0.2-0.2,1.1-0.2,2.5v3.2c0,1.5-0.1,2.4-0.2,3c-0.1,0.5-0.4,1-0.8,1.4c-0.4,0.4-0.9,0.7-1.5,1c-0.6,0.2-1.4,0.4-2.3,0.4
	c-0.9,0-1.7-0.1-2.4-0.3c-0.7-0.2-1.2-0.5-1.5-0.8c-0.3-0.3-0.6-0.7-0.7-1.1c-0.2-0.5-0.2-1.2-0.2-2.3l0-1.6v-2.6
	c0-1.6,0-2.5-0.1-2.7c-0.1-0.2-0.4-0.3-0.9-0.3H144.6z"/>
<path class="st0" d="M162.6,35.3c0.6,0,1.1,0,1.6,0c1.1,0,1.9,0,2.5-0.1c0.4,0,0.9-0.1,1.3-0.2l0.5-2h0.5c-0.1,1.1-0.3,2.1-0.3,3
	c-0.5,0.1-1.2,0.1-2.1,0.1l-4.1-0.1c-0.5,0-1.4,0-2.6,0.1v-0.4c0.5-0.2,0.7-0.4,0.8-0.6c0.1-0.2,0.1-1.1,0.1-2.7v-4.7
	c0-1.7,0-2.7-0.1-2.9c-0.1-0.2-0.3-0.3-0.7-0.3h-0.9V24c1.4,0,2.3,0.1,2.7,0.1c0.6,0,1.4,0,2.4-0.1v0.5h-1.1c-0.3,0-0.5,0.1-0.6,0.3
	c-0.1,0.2-0.1,0.9-0.1,2.2v5.4l0,2.4L162.6,35.3z"/>
<path class="st0" d="M170.2,35.7h0.5c0.5,0,0.8-0.1,1-0.4c0.1-0.3,0.2-1.5,0.2-3.7v-2.9c0-2.3,0-3.5-0.1-3.8
	c-0.1-0.2-0.4-0.4-0.8-0.4h-0.7V24c1,0,1.9,0.1,2.8,0.1c0.8,0,1.5,0,2.1-0.1v0.5h-0.7c-0.4,0-0.7,0-0.8,0.1
	c-0.1,0.1-0.2,0.3-0.2,0.7c0,0.6,0,1.7,0,3.3v2.9c0,2.2,0,3.4,0.1,3.7c0.1,0.2,0.4,0.3,0.9,0.3h0.6v0.5c-0.7,0-1.5-0.1-2.3-0.1
	c-1,0-1.8,0-2.6,0.1V35.7z"/>
<path class="st0" d="M182.4,29.4l5.8,5.5l0.5,0.5c0.1,0.1,0.2,0.2,0.3,0.2c0.1,0,0.3,0.1,0.5,0.1v0.5c-0.5,0-0.9-0.1-1.2-0.1
	c-0.4,0-0.8,0-1.2,0.1l-5.9-5.6c-0.2-0.2-0.3-0.3-0.4-0.3c-0.1,0-0.2,0.1-0.2,0.3v2.6c0,1.3,0,2,0.1,2.1c0.1,0.2,0.4,0.3,0.9,0.3
	h0.6v0.5c-0.9,0-1.8-0.1-2.5-0.1c-0.8,0-1.6,0-2.4,0.1v-0.5h0.7c0.5,0,0.7-0.1,0.8-0.3c0.1-0.2,0.1-0.9,0.1-2.2v-5.7
	c0-1.6,0-2.5-0.1-2.6c-0.1-0.2-0.4-0.3-0.8-0.3h-0.7V24c1.1,0,1.8,0.1,2.3,0.1c0.3,0,1.2,0,2.7-0.1v0.5l-0.7,0
	c-0.4,0-0.6,0.1-0.7,0.2c-0.1,0.1-0.2,0.3-0.2,0.5c0,0.3,0,1,0,2.3v2.3h0.1c0.5-0.4,0.9-0.7,1.2-1c0.3-0.3,0.9-0.9,1.7-1.7l2.4-2.5
	V24c0.6,0,1.1,0.1,1.6,0.1c0.4,0,0.9,0,1.4-0.1v0.5h-0.5c-0.4,0-0.8,0.1-1,0.2c-0.3,0.2-0.9,0.7-2,1.7L182.4,29.4z"/>
<path class="st0" d="M191.8,29.4c0,1.3,0.2,2.4,0.7,3.3c0.4,0.9,1,1.7,1.8,2.1c0.7,0.5,1.6,0.7,2.5,0.7c0.9,0,1.6-0.2,2.3-0.6
	c0.7-0.4,1.2-1,1.6-1.8c0.4-0.8,0.6-1.8,0.6-2.9c0-1.2-0.2-2.2-0.6-3.1c-0.4-0.9-1-1.5-1.7-1.9c-0.7-0.4-1.6-0.6-2.6-0.6
	c-0.9,0-1.7,0.2-2.3,0.6c-0.7,0.4-1.2,0.9-1.5,1.7C192,27.6,191.8,28.5,191.8,29.4 M190,30.1c0-1.9,0.6-3.4,1.8-4.5
	c1.2-1.1,2.8-1.7,4.8-1.7c2,0,3.5,0.5,4.6,1.6c1.1,1.1,1.7,2.5,1.7,4.2c0,1.9-0.6,3.5-1.9,4.7c-1.3,1.3-2.9,1.9-4.9,1.9
	c-1.2,0-2.3-0.3-3.2-0.8c-0.9-0.5-1.6-1.2-2.1-2.2C190.3,32.5,190,31.4,190,30.1"/>
<path class="st0" d="M206,29.4c0,1.3,0.2,2.4,0.7,3.3c0.4,0.9,1,1.7,1.8,2.1c0.7,0.5,1.6,0.7,2.5,0.7c0.9,0,1.6-0.2,2.3-0.6
	c0.7-0.4,1.2-1,1.6-1.8c0.4-0.8,0.6-1.8,0.6-2.9c0-1.2-0.2-2.2-0.6-3.1c-0.4-0.9-1-1.5-1.7-1.9c-0.7-0.4-1.6-0.6-2.6-0.6
	c-0.9,0-1.7,0.2-2.3,0.6c-0.7,0.4-1.2,0.9-1.5,1.7C206.2,27.6,206,28.5,206,29.4 M204.3,30.1c0-1.9,0.6-3.4,1.8-4.5
	c1.2-1.1,2.8-1.7,4.8-1.7c2,0,3.5,0.5,4.6,1.6c1.1,1.1,1.7,2.5,1.7,4.2c0,1.9-0.6,3.5-1.9,4.7c-1.3,1.3-2.9,1.9-4.9,1.9
	c-1.2,0-2.3-0.3-3.2-0.8c-0.9-0.5-1.6-1.2-2.1-2.2C204.6,32.5,204.3,31.4,204.3,30.1"/>
<path class="st0" d="M221.9,35.3c0.6,0,1.1,0,1.6,0c1.1,0,1.9,0,2.5-0.1c0.4,0,0.9-0.1,1.3-0.2l0.5-2h0.5c-0.1,1.1-0.3,2.1-0.3,3
	c-0.5,0.1-1.2,0.1-2.1,0.1l-4.1-0.1c-0.5,0-1.4,0-2.6,0.1v-0.4c0.5-0.2,0.7-0.4,0.8-0.6c0.1-0.2,0.1-1.1,0.1-2.7v-4.7
	c0-1.7,0-2.7-0.1-2.9c-0.1-0.2-0.3-0.3-0.7-0.3h-0.9V24c1.4,0,2.3,0.1,2.7,0.1c0.6,0,1.4,0,2.4-0.1v0.5h-1.1c-0.3,0-0.5,0.1-0.6,0.3
	c-0.1,0.2-0.1,0.9-0.1,2.2v5.4l0,2.4L221.9,35.3z"/>
<path class="st0" d="M0,23.6C0,11.4,6.7,4.4,13.7,0.4c0,0,0.6-0.3,0.7-0.4c0.1,0,0.7,0.4,0.7,0.4c7.3,4.3,13.7,11,13.7,23.3l0,12.7
	H25l0-12.4c0-10.3-4.9-15.7-10.6-19.2c-6,3.4-10.6,8.9-10.6,19.2l0,12.4h4l0-12.7c0-5.2,2.9-8.2,5.8-9.9c0.3-0.2,0.6-0.3,0.9-0.4
	c0.3,0.1,0.6,0.3,0.9,0.4c3,1.8,5.8,4.7,5.8,9.9l0,22.8c-1.1-1.2-2.4-2.2-3.8-3.2l0-19.6c0-3.1-1.3-4.8-2.9-5.9
	c-1.7,1.1-2.8,2.8-2.8,5.9l0,16.6c-3.3-1.3-7-2-11-2c-0.2,0-0.4,0-0.7,0v-2.1"/>
</svg>
