<?xml version="1.0" encoding="utf-8"?>
<!-- Generator: Adobe Illustrator 16.0.4, SVG Export Plug-In . SVG Version: 6.00 Build 0)  -->
<!DOCTYPE svg PUBLIC "-//W3C//DTD SVG 1.1//EN" "http://www.w3.org/Graphics/SVG/1.1/DTD/svg11.dtd">
<svg version="1.1" id="Layer_1" xmlns="http://www.w3.org/2000/svg" xmlns:xlink="http://www.w3.org/1999/xlink" x="0px" y="0px"
	 width="163.22px" height="60px" viewBox="0 0 163.22 60" enable-background="new 0 0 163.22 60" xml:space="preserve">
<g>
	<path fill="#970D10" d="M0.022,46.914v2.672c0.278-0.007,0.557-0.007,0.841-0.007c5.054,0,9.85,0.906,14.163,2.54V30.6
		c0-4.008,1.512-6.184,3.661-7.64c2.079,1.476,3.699,3.681,3.699,7.64L22.34,55.882c1.82,1.232,3.482,2.614,4.942,4.118l0.039-29.51
		c0-6.73-3.576-10.466-7.494-12.775c-0.38-0.191-0.762-0.437-1.119-0.555c-0.338,0.137-0.708,0.323-1.117,0.555
		c-3.799,2.165-7.494,6.062-7.494,12.775l-0.011,16.424H4.963l-0.02-16.083c0-13.32,5.836-20.354,13.657-24.797
		c7.326,4.443,13.655,11.48,13.655,24.797l0.019,16.083h4.941l-0.02-16.381c0-15.815-8.239-24.466-17.711-30.059
		c0,0-0.742-0.444-0.885-0.475c-0.145,0.03-0.887,0.475-0.887,0.475C8.608,5.634,0,14.718,0,30.533L0.022,46.914z"/>
	<g>
		<path d="M58.067,16.009c-0.037,0.498-0.056,1.022-0.056,1.575v2.833c0,1.058,0.025,1.638,0.079,1.746
			c0.053,0.105,0.243,0.161,0.568,0.161h0.371v0.308c-0.588-0.022-1.088-0.035-1.496-0.035c-0.414,0-0.908,0.013-1.487,0.035v-0.308
			h0.418c0.218,0,0.36-0.029,0.427-0.087c0.067-0.06,0.107-0.173,0.124-0.342c0.033-0.388,0.051-0.89,0.051-1.501v-2.844
			c0-0.56-0.013-1.072-0.036-1.542h-0.507c-0.818,0-1.271,0.021-1.354,0.057c-0.083,0.039-0.138,0.187-0.164,0.443l-0.069,0.664
			h-0.309l0.009-0.591c0-0.236-0.021-0.581-0.063-1.029c1.797,0.025,2.854,0.038,3.17,0.038l2.762-0.038
			c-0.063,0.562-0.1,1.102-0.108,1.62h-0.311l-0.049-0.648c-0.021-0.225-0.05-0.357-0.086-0.398
			c-0.037-0.041-0.119-0.067-0.245-0.076c-0.367-0.027-0.782-0.041-1.249-0.041H58.067z"/>
		<path d="M65.245,20.231h-2.879l-0.342,0.817c-0.222,0.532-0.333,0.856-0.333,0.976c0,0.075,0.021,0.131,0.062,0.165
			c0.041,0.033,0.147,0.058,0.314,0.079l0.479,0.056v0.308c-0.318-0.023-0.676-0.035-1.072-0.035c-0.477,0-0.896,0.012-1.258,0.035
			v-0.308l0.149-0.005c0.23-0.008,0.381-0.03,0.447-0.073c0.069-0.04,0.142-0.144,0.217-0.306c0.235-0.479,0.475-0.995,0.72-1.549
			l1.363-3.101c0.363-0.822,0.61-1.419,0.744-1.792h0.346l2.508,5.859c0.169,0.396,0.281,0.638,0.337,0.718
			c0.057,0.082,0.119,0.143,0.194,0.178c0.071,0.032,0.236,0.056,0.49,0.07v0.308c-0.425-0.023-0.83-0.035-1.215-0.035
			c-0.359,0-0.843,0.012-1.448,0.035v-0.308l0.492-0.03c0.177-0.014,0.28-0.032,0.312-0.054c0.049-0.037,0.075-0.085,0.075-0.141
			c0-0.061-0.05-0.214-0.147-0.467L65.245,20.231z M62.55,19.832h2.518l-1.258-3.015L62.55,19.832z"/>
		<path d="M70.298,22.135c0.326,0.017,0.643,0.024,0.951,0.024c0.623,0,1.111-0.014,1.465-0.049
			c0.245-0.028,0.498-0.075,0.762-0.145l0.299-1.17h0.31c-0.086,0.63-0.151,1.218-0.199,1.763c-0.301,0.051-0.708,0.077-1.224,0.077
			l-2.368-0.04c-0.317,0-0.814,0.014-1.487,0.036v-0.253c0.267-0.116,0.426-0.241,0.472-0.374c0.051-0.132,0.073-0.657,0.073-1.575
			v-2.733c0-0.993-0.022-1.545-0.071-1.659c-0.047-0.117-0.184-0.174-0.405-0.174h-0.541v-0.311
			c0.791,0.025,1.316,0.037,1.577,0.037c0.345,0,0.815-0.012,1.407-0.037v0.311H70.7c-0.175,0-0.286,0.051-0.333,0.152
			c-0.046,0.102-0.069,0.519-0.069,1.258v3.166l0.016,1.401L70.298,22.135z"/>
		<path d="M76.624,22.135c0.325,0.017,0.644,0.024,0.951,0.024c0.624,0,1.111-0.014,1.466-0.049
			c0.245-0.028,0.498-0.075,0.761-0.145l0.299-1.17h0.309c-0.085,0.63-0.152,1.218-0.199,1.763
			c-0.299,0.051-0.707,0.077-1.224,0.077l-2.367-0.04c-0.318,0-0.813,0.014-1.487,0.036v-0.253c0.268-0.116,0.425-0.241,0.473-0.374
			c0.05-0.132,0.073-0.657,0.073-1.575v-2.733c0-0.993-0.023-1.545-0.071-1.659c-0.048-0.117-0.184-0.174-0.404-0.174H74.66v-0.311
			c0.79,0.025,1.317,0.037,1.577,0.037c0.344,0,0.814-0.012,1.406-0.037v0.311h-0.617c-0.174,0-0.286,0.051-0.333,0.152
			s-0.069,0.519-0.069,1.258v3.166l0.016,1.401L76.624,22.135z"/>
		<path d="M81.124,22.324h0.313c0.312,0,0.497-0.075,0.558-0.225c0.063-0.148,0.094-0.865,0.094-2.146v-1.69
			c0-1.326-0.026-2.059-0.08-2.195c-0.053-0.136-0.213-0.204-0.479-0.204h-0.405v-0.311c0.556,0.025,1.104,0.038,1.646,0.038
			c0.449,0,0.86-0.013,1.229-0.038v0.311h-0.388c-0.237,0-0.389,0.028-0.448,0.083c-0.059,0.059-0.096,0.202-0.104,0.43
			c-0.017,0.355-0.025,0.988-0.025,1.899v1.718c0,1.292,0.028,2.003,0.085,2.133c0.058,0.13,0.239,0.198,0.548,0.198H84v0.308
			c-0.413-0.023-0.86-0.035-1.347-0.035c-0.564,0-1.073,0.012-1.529,0.035V22.324z"/>
		<path d="M86.719,16.667v3.446c0,0.786,0.015,1.333,0.046,1.641c0.022,0.237,0.063,0.381,0.118,0.432
			c0.055,0.053,0.215,0.09,0.479,0.111l0.322,0.027v0.31c-0.363-0.024-0.693-0.038-0.985-0.038c-0.203,0-0.67,0.014-1.397,0.038
			v-0.31h0.357c0.218,0,0.358-0.03,0.426-0.091c0.065-0.058,0.107-0.178,0.126-0.352c0.035-0.366,0.053-0.863,0.053-1.491v-2.475
			c0-0.466-0.005-0.925-0.015-1.382c-0.006-0.19-0.032-0.322-0.077-0.395c-0.044-0.07-0.11-0.135-0.197-0.193
			c-0.085-0.055-0.206-0.083-0.363-0.083h-0.307v-0.311c0.419,0.025,0.741,0.038,0.964,0.038c0.237,0,0.5-0.013,0.783-0.038
			c0.328,0.401,0.636,0.794,0.927,1.174c0.29,0.379,0.59,0.761,0.901,1.146l1.699,2.089c0.611,0.749,1.055,1.27,1.326,1.562v-3.194
			c0-1.337-0.024-2.068-0.072-2.193c-0.048-0.124-0.241-0.203-0.574-0.236l-0.373-0.035v-0.311c0.535,0.025,0.95,0.038,1.243,0.038
			c0.31,0,0.708-0.013,1.196-0.038v0.311H92.94c-0.311,0-0.49,0.104-0.535,0.31c-0.03,0.137-0.045,0.863-0.045,2.178v2.246
			c0,0.604,0.026,1.326,0.079,2.163c-0.449-0.068-0.71-0.119-0.782-0.15c-0.074-0.031-0.144-0.086-0.208-0.159
			c-0.368-0.407-0.754-0.86-1.16-1.358L86.719,16.667z"/>
		<path d="M95.493,16.667v3.446c0,0.786,0.016,1.333,0.046,1.641c0.022,0.237,0.062,0.381,0.118,0.432
			c0.055,0.053,0.215,0.09,0.479,0.111l0.322,0.027v0.31c-0.364-0.024-0.693-0.038-0.984-0.038c-0.204,0-0.671,0.014-1.4,0.038
			v-0.31h0.361c0.217,0,0.356-0.03,0.422-0.091c0.068-0.058,0.108-0.178,0.127-0.352c0.036-0.366,0.054-0.863,0.054-1.491v-2.475
			c0-0.466-0.004-0.925-0.015-1.382c-0.007-0.19-0.03-0.322-0.077-0.395c-0.044-0.07-0.11-0.135-0.197-0.193
			c-0.084-0.055-0.208-0.083-0.361-0.083h-0.309v-0.311c0.422,0.025,0.743,0.038,0.966,0.038c0.236,0,0.498-0.013,0.781-0.038
			c0.327,0.401,0.638,0.794,0.928,1.174c0.29,0.379,0.59,0.761,0.9,1.146l1.699,2.089c0.613,0.749,1.053,1.27,1.325,1.562v-3.194
			c0-1.337-0.022-2.068-0.071-2.193c-0.048-0.124-0.238-0.203-0.574-0.236l-0.372-0.035v-0.311c0.533,0.025,0.947,0.038,1.244,0.038
			c0.307,0,0.706-0.013,1.193-0.038v0.311h-0.384c-0.311,0-0.488,0.104-0.535,0.31c-0.031,0.137-0.045,0.863-0.045,2.178v2.246
			c0,0.604,0.026,1.326,0.078,2.163c-0.448-0.068-0.71-0.119-0.782-0.15c-0.074-0.031-0.143-0.086-0.208-0.159
			c-0.367-0.407-0.753-0.86-1.158-1.358L95.493,16.667z"/>
		<path d="M107.265,20.231h-2.878l-0.344,0.817c-0.222,0.532-0.331,0.856-0.331,0.976c0,0.075,0.02,0.131,0.062,0.165
			c0.042,0.033,0.146,0.058,0.315,0.079l0.479,0.056v0.308c-0.32-0.023-0.678-0.035-1.075-0.035c-0.477,0-0.896,0.012-1.256,0.035
			v-0.308l0.147-0.005c0.231-0.008,0.381-0.03,0.45-0.073c0.068-0.04,0.14-0.144,0.217-0.306c0.233-0.479,0.473-0.995,0.718-1.549
			l1.363-3.101c0.363-0.822,0.611-1.419,0.744-1.792h0.348l2.508,5.859c0.167,0.396,0.278,0.638,0.335,0.718
			c0.056,0.082,0.122,0.143,0.194,0.178c0.072,0.032,0.236,0.056,0.491,0.07v0.308c-0.426-0.023-0.829-0.035-1.215-0.035
			c-0.36,0-0.845,0.012-1.448,0.035v-0.308l0.493-0.03c0.175-0.014,0.278-0.032,0.312-0.054c0.05-0.037,0.073-0.085,0.073-0.141
			c0-0.061-0.051-0.214-0.148-0.467L107.265,20.231z M104.569,19.832h2.519l-1.259-3.015L104.569,19.832z"/>
		<path d="M114.406,15.863v-0.311c0.682,0.025,1.179,0.038,1.489,0.038c0.327,0,0.808-0.013,1.439-0.038v0.311h-0.362
			c-0.312,0-0.499,0.061-0.562,0.18c-0.063,0.118-0.095,0.659-0.095,1.62v1.946c0,0.712,0.039,1.206,0.119,1.485
			c0.076,0.277,0.278,0.513,0.605,0.705c0.325,0.191,0.762,0.287,1.307,0.287c0.563,0,1.036-0.104,1.423-0.308
			c0.266-0.143,0.459-0.362,0.585-0.663c0.121-0.298,0.183-0.868,0.183-1.706v-1.871c0-0.868-0.04-1.365-0.117-1.487
			c-0.078-0.125-0.291-0.188-0.644-0.188h-0.257v-0.311c0.688,0.025,1.124,0.038,1.311,0.038c0.303,0,0.679-0.013,1.127-0.038v0.311
			h-0.341c-0.265,0-0.436,0.07-0.51,0.212c-0.076,0.142-0.113,0.636-0.113,1.483v1.864c0,0.853-0.042,1.426-0.128,1.724
			c-0.086,0.295-0.239,0.562-0.465,0.802c-0.224,0.238-0.523,0.429-0.897,0.566c-0.374,0.141-0.814,0.21-1.321,0.21
			c-0.524,0-0.98-0.062-1.373-0.186c-0.394-0.126-0.688-0.28-0.887-0.462c-0.196-0.182-0.341-0.403-0.432-0.669
			c-0.085-0.262-0.13-0.711-0.13-1.345l0.009-0.943v-1.516c0-0.934-0.028-1.459-0.083-1.572c-0.054-0.11-0.23-0.169-0.524-0.169
			H114.406z M117.319,13.936c0.149,0,0.276,0.054,0.383,0.159c0.108,0.106,0.16,0.233,0.16,0.383c0,0.152-0.052,0.283-0.16,0.391
			c-0.106,0.104-0.233,0.159-0.383,0.159c-0.153,0-0.282-0.055-0.389-0.159c-0.106-0.107-0.158-0.238-0.158-0.391
			c0-0.149,0.052-0.276,0.158-0.383C117.037,13.989,117.166,13.936,117.319,13.936 M119.467,13.936c0.148,0,0.277,0.054,0.382,0.159
			c0.107,0.106,0.161,0.233,0.161,0.383c0,0.152-0.054,0.283-0.161,0.391c-0.104,0.104-0.233,0.159-0.382,0.159
			c-0.15,0-0.279-0.055-0.387-0.159c-0.108-0.107-0.161-0.238-0.161-0.391c0-0.149,0.053-0.276,0.159-0.383
			C119.184,13.989,119.312,13.936,119.467,13.936"/>
		<path d="M124.93,22.135c0.325,0.017,0.642,0.024,0.951,0.024c0.624,0,1.112-0.014,1.465-0.049
			c0.245-0.028,0.499-0.075,0.762-0.145l0.299-1.17h0.309c-0.087,0.63-0.152,1.218-0.199,1.763c-0.3,0.051-0.707,0.077-1.225,0.077
			l-2.366-0.04c-0.319,0-0.815,0.014-1.486,0.036v-0.253c0.267-0.116,0.424-0.241,0.474-0.374c0.046-0.132,0.071-0.657,0.071-1.575
			v-2.733c0-0.993-0.025-1.545-0.071-1.659c-0.048-0.117-0.185-0.174-0.405-0.174h-0.541v-0.311
			c0.791,0.025,1.315,0.037,1.575,0.037c0.346,0,0.816-0.012,1.409-0.037v0.311h-0.617c-0.177,0-0.286,0.051-0.334,0.152
			c-0.045,0.102-0.069,0.519-0.069,1.258v3.166l0.016,1.401L124.93,22.135z"/>
		<path d="M129.327,22.324h0.315c0.309,0,0.494-0.075,0.559-0.225c0.061-0.148,0.09-0.865,0.09-2.146v-1.69
			c0-1.326-0.025-2.059-0.078-2.195c-0.055-0.136-0.214-0.204-0.481-0.204h-0.404v-0.311c0.555,0.025,1.104,0.038,1.646,0.038
			c0.451,0,0.863-0.013,1.229-0.038v0.311h-0.384c-0.239,0-0.389,0.028-0.448,0.083c-0.061,0.059-0.096,0.202-0.105,0.43
			c-0.019,0.355-0.025,0.988-0.025,1.899v1.718c0,1.292,0.028,2.003,0.086,2.133c0.055,0.13,0.239,0.198,0.548,0.198h0.329v0.308
			c-0.411-0.023-0.857-0.035-1.343-0.035c-0.566,0-1.075,0.012-1.531,0.035V22.324z"/>
		<path d="M136.438,18.696l3.381,3.179l0.307,0.293c0.062,0.065,0.126,0.104,0.19,0.126c0.065,0.02,0.171,0.03,0.321,0.03v0.31
			c-0.272-0.024-0.512-0.038-0.718-0.038c-0.216,0-0.453,0.014-0.709,0.038l-3.424-3.256c-0.114-0.111-0.187-0.164-0.213-0.164
			c-0.069,0-0.104,0.062-0.104,0.194v1.519c0,0.74,0.015,1.147,0.047,1.219c0.049,0.117,0.23,0.179,0.541,0.179h0.377v0.31
			c-0.545-0.024-1.029-0.038-1.45-0.038c-0.441,0-0.916,0.014-1.427,0.038v-0.31h0.407c0.265,0,0.425-0.051,0.479-0.146
			c0.053-0.098,0.078-0.521,0.078-1.269v-3.333c0-0.912-0.025-1.425-0.078-1.541c-0.055-0.113-0.215-0.172-0.479-0.172h-0.407
			v-0.311c0.614,0.025,1.057,0.038,1.332,0.038c0.196,0,0.711-0.013,1.545-0.038v0.311l-0.398,0.016
			c-0.228,0.01-0.372,0.04-0.432,0.091c-0.061,0.052-0.097,0.153-0.113,0.307c-0.014,0.152-0.021,0.593-0.021,1.32v1.342h0.069
			c0.271-0.222,0.506-0.426,0.701-0.609c0.195-0.185,0.518-0.508,0.964-0.966l1.411-1.463v-0.348
			c0.365,0.025,0.668,0.038,0.906,0.038c0.248,0,0.523-0.013,0.825-0.038v0.311h-0.268c-0.241,0-0.443,0.046-0.608,0.137
			c-0.165,0.093-0.547,0.413-1.147,0.964L136.438,18.696z"/>
		<path d="M140.869,19.093c0-1.09,0.351-1.967,1.055-2.632c0.701-0.666,1.637-0.997,2.808-0.997c1.144,0,2.043,0.309,2.695,0.924
			c0.649,0.618,0.977,1.438,0.977,2.46c0,1.102-0.379,2.023-1.134,2.764c-0.755,0.741-1.707,1.113-2.857,1.113
			c-0.718,0-1.338-0.146-1.858-0.436c-0.52-0.293-0.932-0.719-1.232-1.278C141.019,20.452,140.869,19.812,140.869,19.093
			 M141.89,18.686c0,0.745,0.126,1.394,0.382,1.947c0.258,0.553,0.6,0.966,1.028,1.241s0.921,0.415,1.473,0.415
			c0.512,0,0.956-0.118,1.34-0.354c0.385-0.232,0.686-0.581,0.906-1.048c0.218-0.466,0.329-1.029,0.329-1.695
			c0-0.702-0.121-1.299-0.365-1.794c-0.243-0.497-0.576-0.87-0.997-1.121c-0.423-0.252-0.924-0.376-1.501-0.376
			c-0.53,0-0.984,0.109-1.366,0.33c-0.384,0.224-0.686,0.546-0.902,0.974C141.996,17.631,141.89,18.124,141.89,18.686"/>
		<path d="M149.186,19.093c0-1.09,0.352-1.967,1.055-2.632c0.701-0.666,1.637-0.997,2.807-0.997c1.146,0,2.044,0.309,2.695,0.924
			c0.652,0.618,0.977,1.438,0.977,2.46c0,1.102-0.378,2.023-1.133,2.764c-0.755,0.741-1.708,1.113-2.857,1.113
			c-0.719,0-1.337-0.146-1.858-0.436c-0.52-0.293-0.931-0.719-1.232-1.278C149.338,20.452,149.186,19.812,149.186,19.093
			 M150.204,18.686c0,0.745,0.13,1.394,0.384,1.947c0.258,0.553,0.6,0.966,1.026,1.241c0.432,0.275,0.921,0.415,1.474,0.415
			c0.511,0,0.96-0.118,1.344-0.354c0.382-0.232,0.683-0.581,0.901-1.048c0.221-0.466,0.332-1.029,0.332-1.695
			c0-0.702-0.124-1.299-0.366-1.794c-0.243-0.497-0.575-0.87-0.997-1.121c-0.423-0.252-0.924-0.376-1.501-0.376
			c-0.527,0-0.984,0.109-1.369,0.33c-0.382,0.224-0.684,0.546-0.898,0.974C150.312,17.631,150.204,18.124,150.204,18.686"/>
		<path d="M159.436,22.135c0.325,0.017,0.642,0.024,0.951,0.024c0.623,0,1.111-0.014,1.464-0.049
			c0.245-0.028,0.499-0.075,0.761-0.145l0.298-1.17h0.311c-0.085,0.63-0.152,1.218-0.199,1.763
			c-0.299,0.051-0.708,0.077-1.223,0.077l-2.367-0.04c-0.319,0-0.813,0.014-1.487,0.036v-0.253c0.268-0.116,0.425-0.241,0.473-0.374
			c0.05-0.132,0.072-0.657,0.072-1.575v-2.733c0-0.993-0.022-1.545-0.071-1.659c-0.049-0.117-0.183-0.174-0.404-0.174h-0.544v-0.311
			c0.792,0.025,1.318,0.037,1.579,0.037c0.345,0,0.815-0.012,1.407-0.037v0.311h-0.617c-0.176,0-0.286,0.051-0.334,0.152
			c-0.046,0.102-0.068,0.519-0.068,1.258v3.166l0.015,1.401L159.436,22.135z"/>
		<g>
			<g>
				<path d="M61.812,39.394v2.699l0.012,1.553c0,0.971,0.01,1.68,0.032,2.127c1.072,0.081,2.222,0.121,3.448,0.121
					c0.822,0,1.514-0.036,2.071-0.109c0.359-0.044,0.741-0.139,1.145-0.286c0.185-0.645,0.371-1.452,0.562-2.421h0.726
					c-0.198,1.612-0.296,2.686-0.296,3.222l0.021,0.497c-0.843,0.073-1.672,0.109-2.485,0.109l-1.729-0.033
					c-1.905-0.051-3.306-0.076-4.201-0.076c-0.858,0-1.998,0.025-3.42,0.076V46.18h0.341c0.638,0,1.039-0.062,1.204-0.187
					c0.166-0.126,0.275-0.419,0.33-0.88c0.055-0.462,0.083-1.481,0.083-3.058v-6.04c0-0.989-0.024-1.799-0.072-2.43
					s-0.099-1.007-0.153-1.128c-0.056-0.121-0.134-0.214-0.237-0.279c-0.103-0.067-0.418-0.126-0.945-0.177l-0.848-0.089V31.22
					h1.188l1.166,0.039c0.653,0.026,1.147,0.039,1.484,0.039l4.225-0.064l2.002-0.014c0.681-0.006,1.371,0.019,2.067,0.078
					c-0.279,0.87-0.433,2.003-0.462,3.398h-0.748c0-0.808-0.04-1.478-0.121-2.014c-0.865-0.322-1.929-0.484-3.19-0.484
					c-1.004,0-2.056,0.046-3.156,0.133c0.007,0.688,0,1.376-0.022,2.065l-0.021,1.689v2.229c0.726,0.052,1.367,0.077,1.925,0.077
					c1.745,0,2.733-0.061,2.965-0.182c0.23-0.121,0.347-0.497,0.347-1.128v-0.714h0.747c-0.051,1.107-0.077,1.99-0.077,2.65
					c0,0.697,0.026,1.517,0.077,2.463h-0.747v-0.638c0-0.704-0.138-1.135-0.412-1.292c-0.275-0.158-1.245-0.237-2.91-0.237
					C63.11,39.315,62.473,39.342,61.812,39.394z"/>
				<path d="M75.914,45.794c0.718,0.038,1.419,0.056,2.101,0.056c1.378,0,2.457-0.037,3.233-0.109
					c0.543-0.06,1.104-0.166,1.684-0.319l0.659-2.585h0.715c-0.183,1.387-0.326,2.681-0.429,3.883
					c-0.659,0.109-1.562,0.165-2.705,0.165l-5.236-0.088c-0.704,0-1.8,0.04-3.289,0.121v-0.583c0.587-0.258,0.934-0.532,1.04-0.825
					c0.105-0.292,0.159-1.455,0.159-3.486v-6.05c0-2.2-0.054-3.426-0.159-3.68c-0.106-0.253-0.405-0.38-0.897-0.38h-1.198V31.22
					c1.745,0.053,2.904,0.078,3.476,0.078c0.763,0,1.796-0.025,3.102-0.078v0.693h-1.363c-0.389,0-0.635,0.111-0.736,0.336
					c-0.104,0.225-0.154,1.153-0.154,2.788v7.007l0.033,3.102L75.914,45.794z"/>
				<path d="M85.67,31.913V31.22c1.503,0.053,2.596,0.078,3.278,0.078c0.718,0,1.773-0.025,3.167-0.078v0.693h-0.804
					c-0.688,0-1.104,0.132-1.242,0.396c-0.139,0.264-0.209,1.46-0.209,3.585v4.312c0,1.576,0.087,2.673,0.259,3.289
					c0.172,0.615,0.617,1.136,1.337,1.562c0.718,0.426,1.679,0.638,2.881,0.638c1.24,0,2.284-0.227,3.136-0.681
					c0.587-0.315,1.016-0.805,1.287-1.469c0.271-0.664,0.405-1.923,0.405-3.779v-4.147c0-1.92-0.085-3.019-0.258-3.293
					c-0.172-0.275-0.647-0.413-1.425-0.413h-0.571V31.22c1.521,0.053,2.487,0.078,2.898,0.078c0.669,0,1.499-0.025,2.492-0.078
					v0.693h-0.754c-0.581,0-0.956,0.157-1.121,0.467c-0.166,0.313-0.248,1.408-0.248,3.285v4.125c0,1.884-0.094,3.153-0.281,3.811
					c-0.188,0.656-0.527,1.247-1.023,1.776c-0.494,0.528-1.154,0.945-1.979,1.253c-0.824,0.31-1.795,0.464-2.909,0.464
					c-1.15,0-2.16-0.14-3.025-0.414c-0.865-0.275-1.517-0.613-1.951-1.017c-0.437-0.404-0.752-0.897-0.946-1.479
					c-0.194-0.583-0.291-1.576-0.291-2.976l0.021-2.089v-3.355c0-2.069-0.061-3.227-0.182-3.477
					c-0.121-0.249-0.508-0.374-1.161-0.374H85.67z"/>
			</g>
		</g>
	</g>
</g>
</svg>
